<svg xmlns="http://www.w3.org/2000/svg" viewBox="0 0 500 500"><path d="M134.51 193.64v7.5h7.5v-14.99h-7.5zm0-44.97h7.5v7.5h-7.5zm46.32 82.53h7.5v7.5h-7.5z" style="fill:#ebebeb"/><path d="M142.01 163.66v7.49h-7.5v7.5h7.5v7.5H157v7.49h7.5v-7.49h7.49v-15h-7.49v7.5h-14.99v-22.49h-7.5zM157 148.67h-7.49v7.49h14.99v-7.49zm33.73 60.26h4.03v-7.5h-8.05v7.5zm-26.23-52.77h7.5v7.5h-7.5zm52.47 29.99h7.5v7.5h-7.5zm7.5-82.46h7.5v7.5h-7.5z" style="fill:#ebebeb"/><path d="M186.99 163.66v-7.5h7.49v-7.49h-7.49v-7.5h-7.5v7.5h-7.5v7.49h7.5v29.99h7.5v-15h7.49v-7.49zm37.48 74.96h7.49v-7.5h-14.99v7.5zm-15-134.93h7.5v7.5h-7.5z" style="fill:#ebebeb"/><path d="M215.1 163.66v-7.5h-7.5v-7.49h-7.5v14.99h-7.49v7.49h14.99v-7.49zm34.81-14.99h7.5v7.5h-7.5zm-77.7 37.48h7.5v7.5h-7.5zm37.26-44.98v-7.5h7.5v-7.49h14.99v-7.5h-7.49v-7.49h-7.5v7.49h-7.5v7.5h-7.49v7.49h-7.5v7.5zm0 52.47v-7.49h7.5v-7.5h-14.99v7.5h-7.5v7.49zm22.49 29.98v-7.49h-14.99v-7.5h-7.5v7.5h-7.49v7.49h-14.99v7.5h22.48v-7.5h7.5v7.5h7.5v-7.5zm-29.98-112.43v-7.5h-14.99v7.5h-7.5v7.49h14.99v-7.49z" style="fill:#ebebeb"/><path d="M194.48 118.68h7.5v7.5h-7.5zm26.24 29.99h-7.5v22.48h15v-7.49h-7.5v-7.5h7.5v-7.49h7.49v-7.5h-7.49v-7.5h-7.5zm-33.73-22.49h7.5v7.5h-7.5zm29.98 74.96v7.49h14.99v-7.49h15v-7.5h-22.49v7.5zm32.94-29.99h7.5v7.5h-7.5zm-25.44 7.5h7.5v7.5h-7.5z" style="fill:#ebebeb"/><path d="M250.7 156.16h-14.99v7.5h7.5v7.49h7.49zm-11.24 22.49h7.5v7.5h-7.5zm-74.96 45.12H187v-30.14h-30.14v7.51h-7.35v7.49h7.35v7.5h-7.35v7.5h7.35v.14h.14v7.35h-7.49v15H157v-7.5h7.5zm16.72-24.36v18.74h-18.74v-18.74Zm80.73-5.77h7.49v-7.49h-22.48v7.49zm0-29.98h7.49v-14.99h-7.49zm-59.69 37.77h-7.5v14.99h7.5zm67.18-7.79h7.5v7.5h-7.5zm7.5-14.99v-7.5h-7.5v15h7.5zm-134.93 52.47h-7.5v15h7.5zm134.93-89.95v-37.48h-37.48v37.48Zm-31.86-5.62v-26.24h26.24v26.24Z" style="fill:#ebebeb"/><path d="M250.7 114.93h14.99v14.99H250.7zm26.24 93.7h-37.48v37.49h37.48Zm-31.86 31.86v-26.23h26.24v26.23Z" style="fill:#ebebeb"/><path d="M250.7 219.88h14.99v14.99H250.7zM134.42 103.69v37.48h37.48v-37.48Zm31.86 5.62v26.24H140v-26.24Z" style="fill:#ebebeb"/><path d="M145.66 114.93h14.99v14.99h-14.99z" style="fill:#ebebeb"/><circle cx="71.06" cy="250.48" r="3.55" style="fill:#ebebeb" transform="rotate(-75.73 71.055 250.479)"/><path d="M64 245.94a9.84 9.84 0 0 1 14.23-.19c1.81 1.83 4.64-1 2.83-2.81a13.87 13.87 0 0 0-19.87.16c-1.77 1.86 1 4.7 2.81 2.84m-12.08-16.52c5.39-4.66 11.83-7.6 19-7.62a28.22 28.22 0 0 1 19.43 7.44c1.87 1.76 4.71-1.05 2.84-2.81A32.42 32.42 0 0 0 71 217.81c-8.3 0-15.68 3.41-21.88 8.78-2 1.68.87 4.5 2.81 2.83Z" style="fill:#ebebeb"/><path d="M56.67 238.57a19.53 19.53 0 0 1 28.69-.41c1.8 1.85 4.63-1 2.84-2.8a23.51 23.51 0 0 0-34.34.38c-1.74 1.88 1.06 4.72 2.81 2.83M228.1 56.43c.6-4.38-5.59-8-10.24-8.37-2.22-.18-4.52.16-6.62-.57-4.56-1.59-6.38-7.47-10.82-9.34-3.32-1.4-7.15-.16-10.37 1.46s-6.4 3.66-10 3.89c-3.13.2-6.53-1-9.27.57-2 1.14-3.11 3.49-5 4.88s-4.24 1.65-6.52 1.77-4.65.15-6.72 1.1-3.8 3.15-3.37 5.39Z" style="fill:#ebebeb"/><path d="M108.64 130.55c.54-3.93-5-7.17-9.18-7.5-2-.16-4 .14-5.94-.52-4.08-1.42-5.71-6.69-9.69-8.37-3-1.26-6.41-.14-9.29 1.31s-5.74 3.28-9 3.49c-2.81.18-5.85-.86-8.31.51-1.83 1-2.78 3.13-4.47 4.37s-3.8 1.47-5.85 1.59a16.6 16.6 0 0 0-6 1c-1.86.85-3.4 2.83-3 4.84Zm374.74-2.78c.58-4.21-5.36-7.68-9.83-8-2.13-.17-4.34.16-6.36-.55-4.37-1.52-6.12-7.17-10.38-9-3.19-1.34-6.86-.15-9.95 1.41s-6.15 3.51-9.6 3.74c-3 .19-6.27-.93-8.9.54-2 1.09-3 3.35-4.79 4.68s-4.07 1.58-6.26 1.7-4.46.14-6.45 1.06-3.65 3-3.23 5.17Z" style="fill:#f5f5f5"/><path d="M474.46 477.06c0 .14-100.5.26-224.45.26s-224.47-.12-224.47-.26S126 476.8 250 476.8s224.46.11 224.46.26" style="fill:#263238"/><path d="M420.7 433.07a8.14 8.14 0 0 1 4.21 4.77 14.3 14.3 0 0 1 .56 6.47c-.47 4.2-2.86 8.44-5.43 11.79-3.53-3.08-4.35-8.47-4.59-11.22-.38-4.36 1.58-12.46 5.25-11.81m3.45 29.93a7 7 0 0 1 2.24-6.6 9.23 9.23 0 0 1 6.8-2.12 3.86 3.86 0 0 1 3 1.34 3 3 0 0 1 0 3 6 6 0 0 1-2.23 2.19c-3.06 1.92-6.38 3.22-9.84 2.18" style="fill:#007a33"/><path d="M419.62 475.9a6 6 0 0 1 .12-.86c.12-.61.26-1.39.43-2.33a24.2 24.2 0 0 1 2.41-7.45 14.9 14.9 0 0 1 5.34-5.68 10.2 10.2 0 0 1 2.18-1 5 5 0 0 1 .63-.16.6.6 0 0 1 .22 0 16 16 0 0 0-2.92 1.34 15.3 15.3 0 0 0-5.19 5.64 26.5 26.5 0 0 0-2.46 7.34c-.21 1-.38 1.77-.52 2.31a4 4 0 0 1-.24.85" style="fill:#263238"/><path d="M419.75 439.37a1.4 1.4 0 0 1 0 .38c0 .28 0 .63.07 1.08.05.94.1 2.3.16 4 .11 3.36.19 8 .17 13.15s-.15 9.79-.29 13.15c-.06 1.68-.13 3-.19 4 0 .44 0 .8-.07 1.08a1.7 1.7 0 0 1-.05.38 1.6 1.6 0 0 1 0-.38v-1.09c0-1 .06-2.33.1-4 .08-3.36.17-8 .19-13.14s0-9.78-.08-13.14c0-1.66-.05-3-.06-4v-1.08a1.6 1.6 0 0 1 .05-.39" style="fill:#263238"/><path d="M418 465.59a16.26 16.26 0 0 0-8.87-11.9c-1.18-.56-2.72-.93-3.7-.05s-.75 2.45-.27 3.68a13.87 13.87 0 0 0 12.84 8.61" style="fill:#007a33"/><path d="M409.74 457.67a4 4 0 0 1 .75.33 7 7 0 0 1 .85.45 12 12 0 0 1 1.08.68 13 13 0 0 1 1.23.93 16 16 0 0 1 1.32 1.19 17.7 17.7 0 0 1 2.49 3.21 17.4 17.4 0 0 1 1.65 3.72 18.5 18.5 0 0 1 .63 3.26c.06.47 0 .9.06 1.27a9 9 0 0 1 0 1 4.4 4.4 0 0 1-.09.81c-.07 0 .05-1.16-.16-3-.06-.46-.12-1-.24-1.51s-.27-1.1-.44-1.69a17.8 17.8 0 0 0-1.64-3.64 18.5 18.5 0 0 0-2.43-3.17 17 17 0 0 0-1.28-1.2 13 13 0 0 0-1.2-.94c-1.54-1.15-2.61-1.64-2.58-1.7m-257.68 19.4a21.5 21.5 0 0 1-.69-2.85 62.3 62.3 0 0 0-4.61-13.22 25 25 0 0 1-1.24-2.66 12.5 12.5 0 0 1 1.56 2.49 45.4 45.4 0 0 1 4.65 13.36 13.5 13.5 0 0 1 .33 2.88m8.87-43.28a12 12 0 0 1-.25 1.7c-.2 1.08-.47 2.65-.78 4.59-.64 3.89-1.38 9.27-1.84 15.25s-.54 11.43-.51 15.36c0 2 0 3.56.08 4.66a11 11 0 0 1 0 1.71 10.4 10.4 0 0 1-.19-1.7c-.09-1.1-.18-2.69-.24-4.66a142 142 0 0 1 .35-15.41 144 144 0 0 1 2-15.27c.37-1.94.69-3.5.95-4.57a11 11 0 0 1 .43-1.66m14.24 24.91a29 29 0 0 1-1.67 2.43 40.4 40.4 0 0 0-3.42 6.17 39 39 0 0 0-2.21 6.7 28 28 0 0 1-.67 2.87 12.2 12.2 0 0 1 .31-2.95 31.3 31.3 0 0 1 5.69-13 11.5 11.5 0 0 1 1.97-2.22m174.34 3.3a10.4 10.4 0 0 1 1.32 2c.74 1.27 1.7 3.07 2.65 5.1s1.71 3.94 2.21 5.32a9.6 9.6 0 0 1 .68 2.29 12 12 0 0 1-1-2.15c-.58-1.35-1.39-3.21-2.34-5.24s-1.85-3.84-2.51-5.15a11 11 0 0 1-1.01-2.17m18.4-18.26a7 7 0 0 1-.26 1.3c-.21.93-.48 2.1-.81 3.5-.66 3-1.47 7.06-2.08 11.64s-.89 8.77-1 11.79c-.05 1.44-.09 2.64-.12 3.59a6 6 0 0 1-.1 1.32 7.4 7.4 0 0 1-.11-1.32c0-.85-.05-2.08 0-3.6a103 103 0 0 1 .87-11.84 101 101 0 0 1 2.24-11.67c.38-1.47.72-2.65 1-3.46a5.7 5.7 0 0 1 .37-1.25m-133.11 8.14a4.2 4.2 0 0 1 .91.7 29 29 0 0 1 2.25 2.16 39.87 39.87 0 0 1 9.71 17.92 26 26 0 0 1 .58 3.07 5 5 0 0 1 .1 1.14c-.09 0-.34-1.6-1-4.11a44.7 44.7 0 0 0-9.66-17.76c-1.69-2-2.95-3-2.89-3.12m17.33-10.64a8 8 0 0 1 0 1.42v3.86c0 3.26.13 7.76.56 12.72s1.09 9.41 1.65 12.62c.27 1.53.5 2.81.68 3.8a7 7 0 0 1 .2 1.41 9 9 0 0 1-.4-1.37c-.23-.88-.52-2.17-.84-3.77a116.2 116.2 0 0 1-2.22-25.41c0-1.64.1-3 .18-3.87a7 7 0 0 1 .19-1.41m15.3 21.2c.15.08-1.57 3.08-2.75 7.14s-1.4 7.5-1.56 7.49a7.7 7.7 0 0 1 0-2.27 28 28 0 0 1 1-5.37 29 29 0 0 1 2-5.07 8.4 8.4 0 0 1 1.31-1.92" style="fill:#263238"/><path d="M51.31 381.92h11.61v92.17H51.31z" style="fill:#455a64"/><path d="M62.93 474.08v-7.16c0-4.61 0-11.27-.08-19.54 0-16.55-.07-39.55-.11-65.46l.26.26H51.31l.26-.26c-.06 40.37-.11 75.33-.14 92.16l-.12-.11 8.61.06h3.01-2.94l-8.68.06h-.11v-.12c0-16.83-.08-51.79-.15-92.16l.26-.26h11.88v.26c0 26-.09 49.05-.11 65.65 0 8.24-.06 14.88-.08 19.48v6.59c-.06.41-.07.55-.07.55" style="fill:#263238"/><path d="M51.31 384.16h11.61V388H51.31z" style="opacity:.30000000000000004"/><path d="M298.32 381.92h11.61v92.17h-11.61z" style="fill:#455a64"/><path d="M309.93 474.08v-7.16c0-4.61 0-11.27-.08-19.54 0-16.55-.06-39.55-.11-65.46l.26.26h-11.68l.26-.26c-.07 40.37-.12 75.33-.15 92.16l-.11-.11 8.61.06h3H307l-8.68.06h-.12v-.12c0-16.83-.08-51.79-.14-92.16l.26-.26h11.87v.26c0 26-.08 49.05-.11 65.65 0 8.24-.06 14.88-.08 19.48v6.59c-.06.41-.07.55-.07.55" style="fill:#263238"/><path d="M280.12 301.18h11.61v76.83h-11.61z" style="fill:#455a64"/><path d="M291.74 378a2 2 0 0 1 0-.41v-5.55c0-3.85-.05-9.38-.08-16.27 0-13.78-.07-32.94-.11-54.6l.26.26h-11.68c.51-.52.14-.13.25-.24v45.27c-.05 13.2-.08 24.11-.1 31.54l-.13-.13 8.59.07h3.03-2.95l-8.67.07H280V378c0-7.43-.05-18.34-.09-31.54V301.2c.12-.12-.26.24.27-.28H292v.26c0 21.73-.08 41-.11 54.79 0 6.86-.06 12.37-.07 16.2v5.47c0 .27-.08.36-.08.36" style="fill:#263238"/><path d="M73.54 301.18h11.61v76.83H73.54z" style="fill:#455a64"/><path d="M85.16 378a3 3 0 0 1 0-.41v-5.55c0-3.85 0-9.38-.08-16.27 0-13.78-.07-32.94-.11-54.6l.26.26H73.55c.51-.52.14-.13.25-.24v45.27c0 13.2-.08 24.11-.1 31.54l-.13-.13 8.59.07h3.03-2.95l-8.67.07h-.12V378c0-7.43-.06-18.34-.1-31.54V301.2c.12-.12-.26.24.27-.28h11.8v.26c0 21.73-.09 41-.12 54.79 0 6.86 0 12.37-.07 16.2v5.47c0 .27-.07.36-.07.36" style="fill:#263238"/><path d="M50.63 292.41h263.51v12.3H50.63z" style="fill:#455a64"/><path d="M314.14 304.71v-12.3l.07.08-263.5.18.26-.26v12.3l-.26-.26 186.7.11 56.21.08h20.62-20.46l-56.15.08-187 .28h-.26v-12.85h.27l263.5.19h.08v11.65c0 .5-.08.72-.08.72" style="fill:#263238"/><path d="M51.31 310.86h263.51v12.3H51.31z" style="fill:#455a64"/><path d="M314.82 323.16v-12.3l.07.07-263.49.19.26-.26v12.3l-.26-.26 186.6.1 56.21.07h20.62-20.46l-56.15.08-186.9.11h-.26V310.6h.28l263.49.19h.08v11.64c0 .5-.09.73-.09.73" style="fill:#263238"/><path d="M51.31 329.99h263.51v12.3H51.31z" style="fill:#455a64"/><path d="M314.82 342.29v-12.3l.07.07-263.49.19.26-.26v12.3l-.26-.26 186.71.11 56.21.08h20.62-20.46l-56.15.08-186.9.11h-.26v-12.68h.28l263.49.19h.08v11.66c0 .51-.2.71-.2.71" style="fill:#263238"/><path d="M51.31 349.12h263.51v12.3H51.31z" style="fill:#455a64"/><path d="M314.82 361.42v-12.3l.07.08-263.49.18.26-.26v12.3l-.26-.26 186.71.11 56.21.08h20.62-20.46l-56.15.08-186.9.11h-.26v-12.68h.28l263.49.19h.08v11.65c0 .5-.2.72-.2.72" style="fill:#263238"/><path d="M39.87 371.86h279.75v12.3H39.87z" style="fill:#455a64"/><path d="M319.62 384.16v-12.3l.08.07-279.74.19.26-.26v12.3l-.26-.26 198.18.1 59.69.08h21.88-21.86l-59.62.08-198.38.11h-.26V371.6h.27l279.74.19h.07v11.64c0 .5-.05.73-.05.73" style="fill:#263238"/><path d="M298.32 384.16h11.61V388h-11.61z" style="opacity:.30000000000000004"/><path d="m168.31 230.32-2.51 16.19-6.46 14.74-9.57-6.11-3.41-8.6-2.85-7.22s-10.11 2.44-14.14-7c-1.94-4.56-5.18-14.28-8-23.12a19.14 19.14 0 0 1 11-23.54l.91-.38c10.13-3.49 18.75 3.16 21.95 13.37l13.14 31.69" style="fill:#a2675f"/><path d="M143.5 239.32a23.85 23.85 0 0 0 10.93-8.62s-.11 8.05-9.94 11.09Z" style="fill:#7a4a45"/><path d="M127.54 216.43a1.46 1.46 0 0 0 1.87.83 1.4 1.4 0 0 0 .89-1.8 1.46 1.46 0 0 0-1.87-.83 1.4 1.4 0 0 0-.89 1.8m-2.54-3.89c.24.11 1-1.07 2.42-1.67s2.83-.31 2.91-.55-.26-.36-.86-.51a4.1 4.1 0 0 0-2.47.19 3.88 3.88 0 0 0-1.83 1.56c-.3.55-.32.94-.17.98m15.27-1.79a1.46 1.46 0 0 0 1.87.83 1.4 1.4 0 0 0 .9-1.8 1.47 1.47 0 0 0-1.87-.83 1.4 1.4 0 0 0-.9 1.8m-.92-4.6c.23.13 1.07-1 2.58-1.41s2.85 0 3-.23-.21-.38-.8-.6a4.13 4.13 0 0 0-2.44 0 3.9 3.9 0 0 0-2 1.35c-.39.45-.45.83-.34.89m-.42 14.21a10 10 0 0 0-2.54.55c-.39.11-.77.18-.94 0a2 2 0 0 1-.21-1.2q0-1.57-.06-3.3c-.14-4.67-.4-8.45-.58-8.44s-.24 3.8-.1 8.47c0 1.15.08 2.24.11 3.29a2.37 2.37 0 0 0 .41 1.54 1 1 0 0 0 .84.3 2.7 2.7 0 0 0 .67-.18 10.7 10.7 0 0 0 2.4-1.03m-2.38-20.43c.31.34 1.69-.45 3.49-1s3.38-.6 3.46-1c0-.21-.37-.49-1.08-.64a6.28 6.28 0 0 0-5.29 1.52c-.53.51-.72.96-.58 1.12m-13.67 6.87c.4.22 1.26-.53 2.46-1.05s2.33-.69 2.42-1.14c0-.21-.26-.47-.84-.6a3.6 3.6 0 0 0-2.23.28 3.67 3.67 0 0 0-1.7 1.48c-.29.51-.29.91-.11 1.03" style="fill:#263238"/><path d="M157.29 206c.14-.13 5.74-4.61 8.2 2s-4.65 7.7-4.73 7.51-3.47-9.51-3.47-9.51" style="fill:#a2675f"/><path d="M161.84 212.22s.14 0 .37.05a1.27 1.27 0 0 0 .86-.3 3 3 0 0 0 .36-3 4 4 0 0 0-.94-1.52 1.39 1.39 0 0 0-1.19-.56.62.62 0 0 0-.56.57c0 .22.07.33 0 .36s-.18-.06-.23-.35a.78.78 0 0 1 .11-.51.92.92 0 0 1 .57-.41 1.74 1.74 0 0 1 1.58.57 4.25 4.25 0 0 1 1.08 1.69c.46 1.34.24 2.84-.61 3.47a1.32 1.32 0 0 1-1.11.22c-.22-.13-.31-.26-.29-.28" style="fill:#7a4a45"/><path d="M115.75 198.53a3.56 3.56 0 0 1 1.4-3.68 3.19 3.19 0 0 1 3.2-5.34 3.29 3.29 0 0 1 3-4.42 2.77 2.77 0 0 1 4.22-3.37 4.78 4.78 0 0 1 6.65-3.39 6.09 6.09 0 0 1 8.09.2 5.82 5.82 0 0 1 6.24 1.74 4.23 4.23 0 0 1 5.42 4.94 3.15 3.15 0 0 1 2.49 4.34 3.08 3.08 0 0 1 2 5.18c1-.28 1.91.83 2 1.87a30 30 0 0 1-.3 3.1c0 .86.23 1.7.27 2.56a5.56 5.56 0 0 1-1.8 4.32l.25.13c.51.76-.41 1.81-1.33 1.8a4.6 4.6 0 0 1-2.45-1.16 10.2 10.2 0 0 1-2.41-2 2.43 2.43 0 0 1-.16-2.92 3.66 3.66 0 0 1-3.16-1.83 10.6 10.6 0 0 1-1.25-3.6l-1.2-5.53a7 7 0 0 1-7.12-1.37 4 4 0 0 1-5.94.9 5.22 5.22 0 0 1-4.65 5.41c.81 1.24-1.09 3.48-2.27 4.38a5.14 5.14 0 0 1-3.21.65s-1.72 2.28-3.17 2.3-3.72-.88-3.44-2.49a6.5 6.5 0 0 1-1.37-2.72" style="fill:#263238"/><path d="M156.8 189.39a2.6 2.6 0 0 1-.3 1.11 1.32 1.32 0 0 1-1 .62 1.39 1.39 0 0 1-1.3-.58l-.24-.36-.19.39a1.94 1.94 0 0 1-1.67 1 1.9 1.9 0 0 1-1.72-1.31l-.11-.4-.29.29a1.85 1.85 0 0 1-1.32.53 1.82 1.82 0 0 1-1.09-.37c-.54-.41-.66-.84-.72-.82s0 .5.53 1a2.08 2.08 0 0 0 1.26.56 2.26 2.26 0 0 0 1.68-.59l-.41-.11a2.3 2.3 0 0 0 4.31.37h-.43a1.82 1.82 0 0 0 1.77.72 1.68 1.68 0 0 0 1.19-.89c.38-.69.08-1.2.05-1.16m3.54 5.82c-.05 0-.15.28-.58.56a1.69 1.69 0 0 1-1.92 0l-.22-.18-.1.27a1.9 1.9 0 0 1-1.46 1.15 1.84 1.84 0 0 1-1.84-1l-.2-.42-.26.38a1.2 1.2 0 0 1-.24.26 1.3 1.3 0 0 1-1.5.11 1.36 1.36 0 0 1-.58-1.28l.07-.5-.43.26a2.2 2.2 0 0 1-1.64.25 2.1 2.1 0 0 1-1.14-.69 5 5 0 0 1-.62-1.07 1.63 1.63 0 0 0 .4 1.25 2.33 2.33 0 0 0 1.25.89 2.57 2.57 0 0 0 2-.22L151 195a1.82 1.82 0 0 0 .77 1.77 1.79 1.79 0 0 0 2.11-.11 2 2 0 0 0 .35-.38h-.46a2.25 2.25 0 0 0 4.17-.21l-.32.09a1.77 1.77 0 0 0 1.36.31 1.87 1.87 0 0 0 1-.43c.36-.47.39-.83.36-.83m-36.19-10.66a2.5 2.5 0 0 1 .56-.72 1.47 1.47 0 0 1 2.14.28l.24.33.06-.41a2.57 2.57 0 0 1 1.54-1.95 2.48 2.48 0 0 1 2.82.75l.3.37.12-.46a3.14 3.14 0 0 1 1.8-2 3 3 0 0 1 2.84.34 3 3 0 0 1 .84.89l.15.24.23-.17a3 3 0 0 1 3.7.17 3.09 3.09 0 0 1 .79 3.23l-.14.37.38-.09a3.32 3.32 0 0 1 2.46.44 3.2 3.2 0 0 1 1.25 1.5 5 5 0 0 1 .31 1.71s.08-.15.1-.46a3.1 3.1 0 0 0-.18-1.34 3.36 3.36 0 0 0-1.29-1.69 3.65 3.65 0 0 0-2.74-.58l.25.29a3.4 3.4 0 0 0-5.2-4l.38.07a3.4 3.4 0 0 0-1-1 3.49 3.49 0 0 0-3.34-.39 3.61 3.61 0 0 0-2.07 2.36l.43-.09a2.86 2.86 0 0 0-5.07 1.47l.3-.08a1.79 1.79 0 0 0-1.44-.68 1.67 1.67 0 0 0-1.09.46 1.5 1.5 0 0 0-.4.61c-.04.14-.04.23-.03.23" style="fill:#455a64"/><path d="M143.27 218.77c-.24.08.41 1.67-.48 3.35s-2.65 2.2-2.58 2.43.51.15 1.23-.12a4.26 4.26 0 0 0 2.18-1.94 3.7 3.7 0 0 0 .31-2.77c-.21-.72-.55-1.01-.66-.95" style="fill:#263238"/><path d="m133.53 247.57-7.92 22.31 1.83 24.4 5 42.15s18.57-6.27 19.41-5.64-8.22-42.73-8.22-42.73l6.55-35.28-.42-10.39Z" style="fill:#007a33"/><path d="m133.53 247.57-8.71 20-18 7.06L88 280.46 90.64 294a4.9 4.9 0 0 0 6.07 3.78l15.93-4.28 14.84-.68 7.72-17.94Z" style="fill:#007a33"/><path d="m94.15 274.89 1.32-1.64a8.7 8.7 0 0 1 3.76.82 11.25 11.25 0 0 1 3.63 5.45 24.7 24.7 0 0 1 0 4.62l-9-9.25" style="fill:#a2675f"/><path d="M76.6 265.17c0 .27 17 18.28 17 18.28l3.2 3.16H107l-19.8-22-8.54-1.46Zm68.95 40.01a3.6 3.6 0 0 1-.39-.63l-1-1.86c-.86-1.62-2.08-4-3.5-7a108 108 0 0 1-4.5-10.65 28 28 0 0 1-.93-3.23 14 14 0 0 1-.27-1.74v-1.76c0-2.37 0-4.82.12-7.33.12-3.18.28-6.25.47-9.17v-.15l.14-.06 5.27-2.32.06.46-4-.53h-.34l.17-.29c2.6-4.46 4.76-8.19 6.31-10.86l1.79-3 .49-.78a1 1 0 0 1 .19-.26 1.2 1.2 0 0 1-.13.29l-.43.82-1.69 3.08-6.14 10.95-.17-.33 4 .5.85.1-.78.35-5.25 2.34.15-.22c-.18 2.92-.34 6-.46 9.16-.09 2.5-.15 4.94-.13 7.3v1.75a12 12 0 0 0 .25 1.66 29 29 0 0 0 .89 3.18c1.41 4.09 3 7.66 4.39 10.65s2.53 5.37 3.34 7l.92 1.9a5 5 0 0 1 .31.68" style="fill:#263238"/><path d="M86.63 274.89s-2.58 1.86-2.51 2.92a2.88 2.88 0 0 0 1.25 2.37c.6.2 2.38 1.12 2.38 1.12s-1.59 1.52-1.12 3.11a2.91 2.91 0 0 0 1.51 2 9.8 9.8 0 0 0 .66 3.23 4.06 4.06 0 0 0 2.51 1.58 19.7 19.7 0 0 0 2 3.23 5.55 5.55 0 0 0 2.77 1.39s2.38.27 3.63-.59a4.93 4.93 0 0 0 2.71-4.62s5.68-2.84 5.74-4.29-.59-1.91-.59-1.91l-2.84.52s-.4-1.51-1.25-1.65-11.22 2.38-11.22 2.38 7.06-1.12 7.26-2.51.26-2.57-.8-2.84-8.57.55-8.57.55l-.4-1.34s2 .07 2-1.71-1.12-2.18-1.12-2.18Z" style="fill:#a2675f"/><path d="m145.55 244 .86 6.89-5.33 29.97 5.41 25.87 28.04 8.29 11.03-4.76-3.77-72.62-10.02-7.04-3.85-2.59-14.44 21.86z" style="fill:#fafafa"/><path d="m171 230.05 7 3.12 24.82 3.34 13.39 70.42 1.68 8.09 25.67 38.41a3.65 3.65 0 0 1-1.23 5.2l-21 12a3.57 3.57 0 0 1-4.6-1.2L190 329.18l-13.24-16.95s-7.93-24-9-34.21a145 145 0 0 1 0-26.91c.62-6.11 3.24-21.06 3.24-21.06" style="fill:#007a33"/><path d="M202.78 236.51a12.11 12.11 0 0 1 6.27 8.47c1.58 8.36 6.34 22.94 8.13 38.51 2.5 21.78-3.36 28.5-6.12 32.26s-19.88 11.74-19.88 11.74l-12.87-17.14 14.25-11.68-1.25-30.25s-5-6.88-2.5-17.1 9.8-15.43 14-14.81Z" style="fill:#007a33"/><path d="M216.06 306.36c-1.95 5.28-4.18 9.74-8.72 12.25-4.84 2.68-11.57 6.46-16.16 8.88l3.36 5.22c5.27-.81 15-6.95 18.16-11.24a20.43 20.43 0 0 0 3.36-15.11" style="opacity:.30000000000000004"/><path d="M191 270a3 3 0 0 1 .09.45c.06.33.13.77.23 1.33.18 1.21.45 2.93.79 5.14.68 4.5 1.65 11 2.84 19v.1l-.08.07-16.39 14.44v-.31l12.88 17.13-.32-.07c4.28-2.16 8.71-4.5 13.09-7.09 1.25-.75 2.48-1.5 3.67-2.31a22.5 22.5 0 0 0 3.31-2.6 25.5 25.5 0 0 0 4.07-7.17 41.9 41.9 0 0 0 2.41-15.46 101 101 0 0 0-1.37-14.23c-.69-4.43-1.49-8.53-2.28-12.26-1.57-7.47-3.09-13.46-4.15-17.59-.54-2-1-3.64-1.25-4.75-.14-.53-.25-.94-.32-1.24a2 2 0 0 1-.1-.43s.06.14.15.41.21.71.37 1.23c.32 1.07.78 2.67 1.35 4.73 1.12 4.12 2.69 10.1 4.31 17.56.82 3.73 1.64 7.84 2.35 12.28a99.5 99.5 0 0 1 1.41 14.28 42.3 42.3 0 0 1-2.4 15.66 26 26 0 0 1-4.17 7.33 22 22 0 0 1-3.4 2.68c-1.2.81-2.44 1.57-3.69 2.32-4.41 2.61-8.83 4.95-13.13 7.1l-.19.1-.13-.17-12.85-17.16-.13-.18.16-.14 16.45-14.38-.06.17c-1.13-8-2-14.48-2.67-19-.3-2.21-.54-4-.7-5.15-.07-.57-.13-1-.17-1.34a4 4 0 0 1 .02-.48m-18.17 25.87a3 3 0 0 1 .06-.7c.06-.5.15-1.16.25-2 .26-1.78.61-4.25 1.05-7.27.87-6.14 2.24-14.6 3.57-24 .62-4.54 1.21-8.86 1.74-12.8l.16.25-4.24-1.62-.42-.16.37-.24 4.26-2.76-.08.19c-.51-3.53-.92-6.42-1.22-8.5-.12-1-.23-1.73-.3-2.32a4 4 0 0 1-.07-.82 5 5 0 0 1 .18.8c.1.59.24 1.35.41 2.31.34 2.07.81 4.95 1.38 8.47v.13l-.1.07-4.23 2.8-.05-.39 4.26 1.59.18.07v.19c-.52 3.94-1.1 8.27-1.71 12.81-1.32 9.37-2.75 17.83-3.72 24-.5 3-.91 5.48-1.21 7.25l-.35 2a3.6 3.6 0 0 1-.17.65M199 237.46c.06.08-1.21 1-2.92 2.73a25.6 25.6 0 0 0-2.7 3.36 25.6 25.6 0 0 0-4 9.72 25.5 25.5 0 0 0-.42 4.29c0 2.47.27 4 .17 4a4 4 0 0 1-.26-1.06 10 10 0 0 1-.18-1.25 17 17 0 0 1-.1-1.69 23 23 0 0 1 .31-4.38 27.4 27.4 0 0 1 1.48-5.17 27 27 0 0 1 2.57-4.73 23 23 0 0 1 2.84-3.35 17 17 0 0 1 1.25-1.12 11 11 0 0 1 1-.78 4.2 4.2 0 0 1 .96-.57m-71.67 55.38c-.14 0-.6-4.84-1-10.84s-.65-10.86-.5-10.88.6 4.85 1 10.84.64 10.87.5 10.88" style="fill:#263238"/><path d="m211.87 336.99 3.85 7.86 17.83-11.41-6.17-6.99z" style="fill:#007a33"/><path d="M211.87 337a10 10 0 0 1 1.07-.81l3.14-2.21 11.16-7.72.18-.12.14.16 6.19 7 .2.23-.26.16-.78.5L215.82 345l-.18.11-.08-.19-2.76-5.84c-.29-.64-.53-1.16-.71-1.57a3 3 0 0 1-.22-.53 3 3 0 0 1 .32.55c.21.41.48.93.82 1.56l2.88 5.67-.27-.07 17-11 .78-.5v.39c-2.18-2.47-4.26-4.83-6.16-7h.32l-11.17 7.45-3.26 2.13-.89.57Z" style="fill:#263238"/><path d="M212 337.34c.08.15 4 12.07 4 12.07l16.63-11.8-1.43-2.61-15.48 9.9Zm-33.54-100.88 3 9.75-3 1.36 3.95 1.94s-6.22 34-7 37.1-1.74 4.1-1.74 4.1l6.07-41.53-4.24-1.61 4.24-2.79Z" style="opacity:.30000000000000004"/><path d="M112.67 289.59a27.2 27.2 0 0 0-1.13-6.9 27.7 27.7 0 0 0-3.3-6.15 5.7 5.7 0 0 1 1.44 1.51 16.27 16.27 0 0 1 3.21 9.46 5.9 5.9 0 0 1-.22 2.08" style="fill:#263238"/><path d="M125.68 270.16c-3 7.4-1.89 15.51 1.58 22.68-.54-8.25-.86-14.68-1.58-22.68" style="opacity:.30000000000000004"/><path d="M168.83 236.21a5 5 0 0 1-.52 1l-1.55 2.59c-1.3 2.2-3 5.26-4.73 8.75-1.16 2.35-2.15 4.6-3 6.5l-.11.28-.23-.18a35 35 0 0 1-3.72-3.44 8.2 8.2 0 0 1-1.22-1.48 14 14 0 0 1 1.41 1.3 49 49 0 0 0 3.8 3.26l-.34.09c.77-1.93 1.74-4.19 2.9-6.56a91 91 0 0 1 4.88-8.71c.69-1.08 1.28-1.93 1.7-2.51a4.7 4.7 0 0 1 .73-.89M152.41 250a28 28 0 0 1-1.67 5.09l-.13.35-.28-.24-.13-.12a16.7 16.7 0 0 1-3.7-4.12c.11-.1 1.76 1.74 4 3.73l.13.11-.41.11a28 28 0 0 1 2.19-4.91m2.94 51.17a1.3 1.3 0 0 1-.08-.48c0-.39-.08-.85-.13-1.41-.08-1.31-.2-3.06-.34-5.19-.27-4.38-.58-10.43-.85-17.12s-.41-12.75-.41-17.14c0-2.2 0-4 .07-5.2 0-.56 0-1 .07-1.41a2 2 0 0 1 .06-.49 1.5 1.5 0 0 1 0 .49v1.41c0 1.31.06 3.06.1 5.19.09 4.39.3 10.44.56 17.13s.51 12.67.69 17.12c.08 2.14.14 3.89.19 5.2v1.41a2.7 2.7 0 0 1 .07.49" style="fill:#263238"/><path d="m96.8 436.22 2.59 24.41s-24 10.84-23.91 15.39l47.52-3.31-2.47-38.22Z" style="fill:#007a33"/><path d="M113.94 457.55a2 2 0 0 1 1.5 2.12 1.87 1.87 0 0 1-2.09 1.5 2 2 0 0 1-1.57-2.25 1.93 1.93 0 0 1 2.34-1.32m8.99 16.1-.24-3.7-45.68 3.48s-2.06 1.07-1.71 2.54Z" style="fill:#e0e0e0"/><path d="M98.6 460.45c0 .23 1.19.25 2.39.92s1.87 1.6 2.07 1.49-.23-1.42-1.69-2.2-2.83-.42-2.77-.21m-4.84 2.41c0 .22 1 .55 1.85 1.48s1.16 1.94 1.39 1.92.29-1.35-.8-2.48-2.45-1.15-2.44-.92M91.35 469c.21 0 .45-1.15-.23-2.38s-1.81-1.66-1.89-1.46.63.84 1.18 1.85.7 1.99.94 1.99m7.28-14.18c.11.2 1.15-.19 2.47-.2s2.37.34 2.48.14-.94-1-2.49-.95-2.59.83-2.46 1.01" style="fill:#263238"/><path d="m88.34 337.69-22 10.88s-18.46-18.72-22.72-17.1l19.56 43.43 35-15.55Z" style="fill:#007a33"/><path d="M74.26 361.15a1.94 1.94 0 0 1-1.47 2.14 1.86 1.86 0 0 1-2.13-1.44 2 2 0 0 1 1.57-2.25 1.94 1.94 0 0 1 2 1.74m-11.95 14.01 3.39-1.51-19.09-41.65s-1.71-1.55-3-.72Z" style="fill:#e0e0e0"/><path d="M66.23 347.77c-.21.1.17 1.2 0 2.55s-.85 2.31-.68 2.47 1.26-.71 1.48-2.35-.62-2.81-.8-2.67m-3.94-3.71c-.22 0-.17 1.13-.74 2.25s-1.43 1.76-1.33 2 1.37-.2 2.05-1.61.23-2.7.02-2.64m-6.61-.13c0 .21 1.23 0 2.15-1s.93-2.27.71-2.28-.56.89-1.33 1.75-1.61 1.31-1.53 1.53m15.84 1.91c-.15.18.58 1 1 2.26s.5 2.34.73 2.36.59-1.21 0-2.65-1.61-2.15-1.73-1.97m27.56 5.69a12.79 12.79 0 0 0-9.48 10.07c-1.61 8.47 4.22 93.66 4.22 93.66l29.9-2.4-1.83-57.4-.74-11.58 2.57-2 52.55-9.25-8-21.72-8.79-15.3-40.25 10Z" style="fill:#263238"/><path d="M198 337.18s-21.74-31.43-28.1-36c-5.24-3.77-13.12-3.76-18-1.57s-81 39.95-81 39.95l11.17 28 72.46-25.11 10.8 17 10.06 13.32 28.24.22c1.33 0 7.4-12 7.4-12Z" style="fill:#263238"/><path d="M89.32 368.17a1 1 0 0 1 0-.29v-2.27c0-.55.13-1.19.21-1.91s.31-1.49.47-2.36c.09-.43.27-.86.41-1.31a10 10 0 0 1 .54-1.39 13.55 13.55 0 0 1 4.28-5.48 10.6 10.6 0 0 1 3.67-1.8l4.33-.74 9.53-1.59 21.85-3.62 19.84-3.25h.16l.09.14c5.81 9.07 10.53 17 14.5 22.12 1.92 2.59 3.46 4.65 4.54 6.09.51.69.91 1.23 1.21 1.62l.3.42.1.15-.13-.12-.34-.4-1.27-1.57c-1.1-1.38-2.7-3.41-4.65-6-4.05-5.12-8.84-13-14.67-22l.24.11-19.84 3.28-21.85 3.58-9.54 1.55-4.31.7a10.4 10.4 0 0 0-3.55 1.7 13.4 13.4 0 0 0-4.22 5.31 8.6 8.6 0 0 0-.55 1.36 12 12 0 0 0-.43 1.29 21 21 0 0 0-.5 2.32l-.27 1.89c0 .54-.06 1-.08 1.4s0 .64-.06.86a1.4 1.4 0 0 1-.01.21" style="fill:#455a64"/><path d="M164.9 323a3.5 3.5 0 0 1 .11.9 15 15 0 0 1 0 2.47 20.3 20.3 0 0 1-.67 3.62 24.3 24.3 0 0 1-1.66 4.19 24.7 24.7 0 0 1-2.5 3.75 21.3 21.3 0 0 1-2.6 2.61 15 15 0 0 1-2 1.44 3.2 3.2 0 0 1-.81.42c-.05-.08 1-.76 2.57-2.14a23 23 0 0 0 2.46-2.63 25.6 25.6 0 0 0 2.42-3.69 26 26 0 0 0 1.66-4.09 22 22 0 0 0 .76-3.52c.23-2.03.16-3.33.26-3.33" style="fill:#455a64"/><path d="m416.9 422.68-130.85-.07a28.51 28.51 0 0 1-28.49-28.51l.07-328.1a28.5 28.5 0 0 1 28.52-28.5l130.85.12a28.51 28.51 0 0 1 28.49 28.51l-.06 328.06a28.51 28.51 0 0 1-28.53 28.49" style="fill:#263238"/><path d="M416.86 49.22h-25.37a6.31 6.31 0 0 0-6.16 6.44v4.6a6.3 6.3 0 0 1-6.16 6.44h-49.45a6.3 6.3 0 0 1-6.16-6.44V55.6a6.31 6.31 0 0 0-6.16-6.44h-31.13a20 20 0 0 0-20 20l-.06 320.21a20 20 0 0 0 19.95 20l130.6.07a20 20 0 0 0 20-20l.07-320.21a20 20 0 0 0-19.97-20.01" style="fill:#fff"/><path d="M436.82 69.19a20 20 0 0 0-20-20h-25.37a6.31 6.31 0 0 0-6.16 6.44v4.6a6.3 6.3 0 0 1-6.16 6.44h-49.45a6.3 6.3 0 0 1-6.16-6.44V55.6a6.31 6.31 0 0 0-6.16-6.44h-31.13a20 20 0 0 0-20 20l-.06 30.62h170.64Z" style="fill:#f5f5f5"/><path d="M422.94 80.44c0 .09-3.06.2-6.83.23a66 66 0 0 1-6.83-.12 133 133 0 0 1 13.66-.11m.06 3.49a65 65 0 0 1-6.82.23 66 66 0 0 1-6.83-.12c0-.09 3.05-.19 6.83-.23s6.82.03 6.82.12m0 3.5c0 .09-3.05.19-6.82.22a68 68 0 0 1-6.83-.11 133 133 0 0 1 13.65-.11M304.11 322.24l.69-1.45a6.72 6.72 0 0 0 4.3 1.5c2.24 0 3.21-.87 3.21-2 0-3.17-7.88-1.17-7.88-6 0-2 1.56-3.72 5-3.72a7.6 7.6 0 0 1 4.18 1.16l-.61 1.47a6.76 6.76 0 0 0-3.57-1.06c-2.21 0-3.16.93-3.16 2.07 0 3.18 7.88 1.19 7.88 6 0 2-1.6 3.7-5 3.7a7.78 7.78 0 0 1-5.04-1.67m11.56-3.44a4.93 4.93 0 0 1 5.21-5 4.38 4.38 0 0 1 4 2.1l-1.35.87a3.1 3.1 0 0 0-2.68-1.41 3.47 3.47 0 0 0 0 6.93 3.07 3.07 0 0 0 2.68-1.41l1.35.86a4.41 4.41 0 0 1-4 2.11 4.94 4.94 0 0 1-5.21-5.05m19.33-1.02v5.94h-1.69v-1.3a3.65 3.65 0 0 1-3.23 1.41c-2.23 0-3.65-1.19-3.65-2.9s1-2.88 4-2.88h2.83v-.35c0-1.5-.88-2.38-2.64-2.38a5 5 0 0 0-3.12 1.06l-.75-1.34a6.6 6.6 0 0 1 4.07-1.26c2.66 0 4.18 1.3 4.18 4m-1.78 2.93v-1.37h-2.75c-1.77 0-2.27.68-2.27 1.52s.82 1.6 2.17 1.6a2.86 2.86 0 0 0 2.85-1.75m14.44-2.66v5.67h-1.79v-5.46c0-1.93-1-2.88-2.65-2.88a2.93 2.93 0 0 0-3.13 3.27v5.07h-1.78v-9.85H340v1.49a4.23 4.23 0 0 1 3.55-1.58c2.45 0 4.11 1.38 4.11 4.27m12.65 0v5.67h-1.78v-5.46c0-1.93-1-2.88-2.66-2.88a2.92 2.92 0 0 0-3.12 3.27v5.07H351v-9.85h1.71v1.49a4.21 4.21 0 0 1 3.55-1.58c2.36 0 4.05 1.38 4.05 4.27m3-7.23a1.21 1.21 0 1 1 1.2 1.16 1.17 1.17 0 0 1-1.2-1.16m.31 3.05h1.79v9.85h-1.79Zm14.54 4.18v5.67h-1.79v-5.46c0-1.93-1-2.88-2.66-2.88a2.92 2.92 0 0 0-3.12 3.27v5.07h-1.78v-9.85h1.71v1.49a4.23 4.23 0 0 1 3.55-1.58c2.39 0 4.09 1.38 4.09 4.27m12.78-4.18v8.52c0 3.47-1.76 5.05-5.11 5.05a7.28 7.28 0 0 1-4.7-1.47l.85-1.37a6 6 0 0 0 3.79 1.28c2.33 0 3.39-1.08 3.39-3.31v-.78a4.52 4.52 0 0 1-3.55 1.52 4.77 4.77 0 1 1 0-9.53 4.5 4.5 0 0 1 3.64 1.62v-1.53Zm-1.75 4.67a3.4 3.4 0 1 0-3.38 3.21 3.14 3.14 0 0 0 3.38-3.21m4.31 4.01a1.24 1.24 0 0 1 1.27-1.26 1.27 1.27 0 0 1 0 2.54 1.26 1.26 0 0 1-1.27-1.28m4.22 0a1.24 1.24 0 0 1 1.27-1.26 1.27 1.27 0 0 1 0 2.54 1.26 1.26 0 0 1-1.27-1.28m4.22 0a1.24 1.24 0 0 1 1.27-1.26 1.27 1.27 0 0 1 0 2.54 1.26 1.26 0 0 1-1.27-1.28" style="fill:#263238"/><rect width="137.53" height="36.77" x="281.1" y="340.32" rx="16.62" style="fill:#ebebeb"/><path d="m307.65 355.38-2.31 6.18h-1.07l-1.79-4.69-1.8 4.69h-1.08l-2.29-6.18h1.06l1.79 4.92 1.87-4.92h.97l1.83 4.95 1.85-4.95Zm10.35 0-2.31 6.18h-1.07l-1.78-4.69-1.81 4.69H310l-2.3-6.18h1.06l1.8 4.92 1.86-4.92h.95l1.83 4.95 1.84-4.95Zm10.43 0-2.3 6.18h-1.08l-1.78-4.69-1.81 4.69h-1.07l-2.3-6.18h1.06l1.8 4.92 1.86-4.92h.95l1.83 4.95 1.84-4.95Zm.23 5.45a.78.78 0 0 1 .79-.8.8.8 0 0 1 0 1.6.79.79 0 0 1-.79-.8m2.39.08.47-.89a4 4 0 0 0 2.17.64c1 0 1.46-.31 1.46-.84 0-1.38-3.9-.18-3.9-2.64 0-1.11 1-1.86 2.58-1.86a4.5 4.5 0 0 1 2.25.56l-.48.89a3.24 3.24 0 0 0-1.78-.49c-1 0-1.46.36-1.46.85 0 1.46 3.91.27 3.91 2.67 0 1.12-1 1.83-2.66 1.83a4.5 4.5 0 0 1-2.56-.72m6.43-7.44a.73.73 0 0 1 .76-.73.73.73 0 1 1 0 1.45.73.73 0 0 1-.76-.72m.2 1.91h1.12v6.18h-1.12Zm6.72 5.82a2.1 2.1 0 0 1-1.35.43 1.77 1.77 0 0 1-2-1.93v-3.4h-1v-.92h1V354h1.12v1.35H344v.92h-1.77v3.35a.92.92 0 0 0 1 1 1.42 1.42 0 0 0 .88-.3Zm6.71-2.35h-5a2.09 2.09 0 0 0 2.24 1.8 2.31 2.31 0 0 0 1.78-.74l.62.72a3.37 3.37 0 0 1-5.76-2.16 3 3 0 0 1 3.1-3.15 3 3 0 0 1 3.05 3.19c-.01.09-.02.23-.03.34m-5-.81h4a2 2 0 0 0-4 0m15.81-2.66-2.31 6.18h-1.07l-1.78-4.69-1.76 4.69h-1.07l-2.3-6.18h1.06l1.8 4.92 1.86-4.92h.95l1.83 4.95 1.84-4.95Zm6.52 3.47h-5a2.09 2.09 0 0 0 2.24 1.8 2.3 2.3 0 0 0 1.78-.74l.62.72a3.37 3.37 0 0 1-5.76-2.16 3 3 0 0 1 3.1-3.15 3 3 0 0 1 3.06 3.19c-.01.09-.03.23-.04.34m-5-.81h4a2 2 0 0 0-4 0m12.98.43a3 3 0 0 1-3.12 3.16 2.62 2.62 0 0 1-2.21-1.05v1H370v-8.65h1.12v3.4a2.64 2.64 0 0 1 2.16-1 3 3 0 0 1 3.14 3.14m-1.13 0a2.08 2.08 0 1 0-2.09 2.18 2 2 0 0 0 2.09-2.18m2.02 2.36a.78.78 0 0 1 .79-.8.8.8 0 0 1 0 1.6.79.79 0 0 1-.79-.8m2.46-2.36a3.09 3.09 0 0 1 3.27-3.15 2.76 2.76 0 0 1 2.51 1.32l-.85.55a1.91 1.91 0 0 0-1.68-.89 2.18 2.18 0 0 0 0 4.35 1.92 1.92 0 0 0 1.68-.88l.85.53a2.77 2.77 0 0 1-2.51 1.33 3.1 3.1 0 0 1-3.27-3.16m6.57 0a3.21 3.21 0 1 1 3.22 3.16 3.08 3.08 0 0 1-3.22-3.16m5.29 0a2.08 2.08 0 1 0-4.16 0 2.08 2.08 0 1 0 4.16 0m12.94-.47v3.55h-1.11v-3.43c0-1.21-.59-1.8-1.6-1.8a1.79 1.79 0 0 0-1.85 2.05v3.18h-1.12v-3.43c0-1.21-.59-1.8-1.6-1.8a1.79 1.79 0 0 0-1.85 2.05v3.18h-1.12v-6.18h1.07v.92a2.5 2.5 0 0 1 2.13-1 2.3 2.3 0 0 1 2.15 1.15 2.78 2.78 0 0 1 2.38-1.15 2.37 2.37 0 0 1 2.52 2.71m-.37 7.62c0 .14-23.59.26-52.67.26s-52.68-.12-52.68-.26 23.58-.26 52.68-.26 52.67.11 52.67.26M294.14 220.88v6.19h6.19v-12.39h-6.19zm0-37.15h6.19v6.19h-6.19zm38.26 68.16h6.19v6.19h-6.19zm-32.07-55.78v6.19h-6.19v6.19h6.19v6.19h12.39v6.2h6.19v-6.2h6.19V202.3h-6.19v6.19h-12.39v-18.57h-6.19zm12.39-12.38h-6.2v6.19h12.39v-6.19zm27.86 49.77h3.32v-6.19h-6.65v6.19zm-21.67-43.58h6.19v6.19h-6.19zm43.34 24.76h6.19v6.19h-6.19zm6.19-68.1h6.19v6.19h-6.19zm-30.96 49.53v-6.19h6.19v-6.19h-6.19v-6.19h-6.19v6.19h-6.19v6.19h6.19v24.76h6.19V202.3h6.19v-6.19zm30.96 61.91h6.19v-6.19h-12.38v6.19zm-12.38-111.44h6.19v6.19h-6.19z" style="fill:#263238"/><path d="M360.7 196.11v-6.19h-6.19v-6.19h-6.19v12.38h-6.19v6.19h12.38v-6.19zm28.75-12.38h6.19v6.19h-6.19zm-64.17 30.95h6.19v6.19h-6.19zm30.78-37.14v-6.19h6.19v-6.2h12.38v-6.19h-6.19v-6.19h-6.19v6.19h-6.19v6.19h-6.2v6.2h-6.19v6.19zm0 43.34v-6.2h6.19v-6.19h-12.39v6.19h-6.19v6.2zm18.57 24.76v-6.2h-12.38v-6.19h-6.19v6.19h-6.2v6.2h-12.38v6.19h18.58v-6.19h6.19v6.19h6.19v-6.19zm-24.77-92.87v-6.19h-12.38v6.19h-6.19v6.19h12.38v-6.19zm-6.19 6.19h6.19v6.19h-6.19z" style="fill:#263238"/><path d="M365.34 183.73h-6.19v18.57h12.38v-6.19h-6.19v-6.19h6.19v-6.19h6.19v-6.19h-6.19v-6.19h-6.19zm-27.86-18.58h6.19v6.19h-6.19zm24.77 61.92v6.19h12.38v-6.19h12.38v-6.19h-18.57v6.19zm27.2-24.77h6.19v6.19h-6.19zm-21.01 6.19h6.19v6.19h-6.19zm21.67-18.57h-12.39v6.19h6.2v6.19h6.19zm-9.29 18.57h6.19v6.19h-6.19zm-61.91 37.27h18.58v-24.89H312.6v6.2h-6.07v6.19h6.07v6.19h-6.07v6.19h6.07v.12h.12v6.07h-6.19v12.38h6.19V258h6.19zm13.81-20.13v15.48h-15.48v-15.48Zm66.67-4.75h6.19v-6.2h-18.57v6.2zm0-24.77h6.19v-12.38h-6.19zm-49.29 31.2h-6.2v12.38h6.2zm55.48-6.43h6.19v6.19h-6.19zm6.2-12.39v-6.19h-6.2v12.38h6.2zm-111.45 43.34h-6.19v12.38h6.19zm111.45-74.29v-31h-31v31Zm-26.32-4.65v-21.67h21.67v21.67Z" style="fill:#263238"/><path d="M390.11 155.87h12.38v12.38h-12.38zm21.67 77.39h-31v30.95h31Zm-26.32 26.31V237.9h21.67v21.67Z" style="fill:#263238"/><path d="M390.11 242.54h12.38v12.38h-12.38zm-96.04-95.96v31H325v-31Zm26.31 4.64v21.67h-21.67v-21.67Z" style="fill:#263238"/><path d="M303.35 155.87h12.38v12.38h-12.38z" style="fill:#263238"/><path d="M285.24 168.16v-22a8.1 8.1 0 0 1 1.74-5.6 7.63 7.63 0 0 1 6-2.5h23.12a.69.69 0 0 0 0-1.38h-22.84a9.7 9.7 0 0 0-5.51 1.39 8.75 8.75 0 0 0-3.9 7.22c-.06 3.62 0 7.25 0 10.86v12a.7.7 0 0 0 1.39 0Zm28.86 106.51h-22a8.14 8.14 0 0 1-5.6-1.74 7.65 7.65 0 0 1-2.5-6v-23.15a.69.69 0 0 0-1.38 0v22.87a9.7 9.7 0 0 0 1.39 5.51 8.73 8.73 0 0 0 7.22 3.89c3.62.06 7.24 0 10.86 0h12a.69.69 0 0 0 0-1.38Zm105.84-31.11v22a8.1 8.1 0 0 1-1.74 5.6 7.62 7.62 0 0 1-6 2.5h-23.15a.69.69 0 0 0 0 1.38h22.87a9.7 9.7 0 0 0 5.51-1.39 8.73 8.73 0 0 0 3.89-7.22c.07-3.62 0-7.24 0-10.86v-12a.69.69 0 0 0-1.38 0Zm-30.49-105.49h22a8.1 8.1 0 0 1 5.6 1.75 7.58 7.58 0 0 1 2.5 6V169a.69.69 0 0 0 1.38 0v-22.9a9.73 9.73 0 0 0-1.39-5.52 8.73 8.73 0 0 0-7.22-3.89c-3.62-.06-7.24 0-10.86 0h-12a.69.69 0 0 0 0 1.38Z" style="fill:#007a33"/></svg>